<svg id="Layer_1" data-name="Layer 1" xmlns="http://www.w3.org/2000/svg" width="145.91" height="50" viewBox="0 0 145.91 50"><defs><style>.cls-1{font-size:41.7px;font-family:DreamOrphans-Bold, Dream Orphans;font-weight:700;}.cls-1,.cls-3{fill:#fff;}.cls-2{fill:none;}</style></defs><title>bushel-logo-nav</title><text class="cls-1" transform="translate(4.63 44.19)">B<tspan class="cls-2" x="21.69" y="0">u</tspan><tspan x="43.29" y="0">shels</tspan></text><path class="cls-3" d="M27.16,22.73c.25,1.41.4,2.83.58,4.24s.33,2.83.47,4.25c.28,2.85.59,5.65.8,8.54,0,0,0,.07,0,.05a.28.28,0,0,0,0-.16c0-.05,0,0,0,0l0,0,.19.13c.13.09.28.17.43.25.3.16.62.3.94.42a14.45,14.45,0,0,0,2,.61,17.57,17.57,0,0,0,4.14.44,22.44,22.44,0,0,0,8.18-1.62l-.25.33c.28-2.89.64-5.76,1-8.64q.26-2.16.6-4.31A28.54,28.54,0,0,1,47.07,23a13.38,13.38,0,0,0-.33,2.14l-.21,2.16-.38,4.33-.74,8.66-.25.33a23.11,23.11,0,0,1-8.48,1.78,18.44,18.44,0,0,1-4.34-.52,15.28,15.28,0,0,1-2.09-.67c-.34-.14-.68-.29-1-.47-.17-.09-.33-.18-.49-.29l-.25-.18a1.1,1.1,0,0,1-.15-.14.37.37,0,0,1-.06-.07.54.54,0,0,1-.07-.22v-.08l-.53-8.51C27.49,28.42,27.38,25.57,27.16,22.73Z"/><path class="cls-3" d="M47.11,19.64c0,.47-.47.77-.84,1a6.9,6.9,0,0,1-1.26.5,19.5,19.5,0,0,1-2.64.58,40.93,40.93,0,0,1-5.4.49A36.92,36.92,0,0,1,31.52,22a17.84,17.84,0,0,1-2.71-.56,6.91,6.91,0,0,1-1.34-.55,2.82,2.82,0,0,1-.64-.49,2.16,2.16,0,0,1-.27-.41,1.13,1.13,0,0,1-.06-.56,1,1,0,0,1,.19-.49,1.3,1.3,0,0,1,.29-.34,3.06,3.06,0,0,1,.64-.45,7.59,7.59,0,0,1,1.32-.55,17.45,17.45,0,0,1,2.7-.6,32.58,32.58,0,0,1,5.45-.28,31.51,31.51,0,0,1,5.39.62,17.43,17.43,0,0,1,2.61.73,7,7,0,0,1,1.22.58A1.51,1.51,0,0,1,47.11,19.64Zm0,0a1.5,1.5,0,0,0-.81-1,6.93,6.93,0,0,0-1.23-.56,15.88,15.88,0,0,0-2.62-.63,29.8,29.8,0,0,0-5.37-.3,34,34,0,0,0-5.32.59,18.77,18.77,0,0,0-2.55.66,6.75,6.75,0,0,0-1.16.5c-.34.19-.66.49-.66.63s.18.39.53.58a6.09,6.09,0,0,0,1.15.49,18.57,18.57,0,0,0,2.56.62,38.27,38.27,0,0,0,5.33.54,38.05,38.05,0,0,0,5.38-.17A17.49,17.49,0,0,0,45,21.09a6.87,6.87,0,0,0,1.26-.48C46.64,20.4,47.07,20.11,47.11,19.64Z"/><path class="cls-3" d="M29.8,21.31c0-.39.06-.77.05-1.14a2.27,2.27,0,0,0-.05-.51c0-.15-.1-.31-.14-.32l0,0-1.27-.48A13.06,13.06,0,0,0,27,18.41s0,0,0,0a.27.27,0,0,0,.17-.11l0,0s0,0,0,.07a2.81,2.81,0,0,0-.08.32c0,.23-.07.49-.1.74-.05.51-.08,1-.14,1.57a6.64,6.64,0,0,1-.44-1.55,5.49,5.49,0,0,1-.06-.83,2.39,2.39,0,0,1,0-.46,1.06,1.06,0,0,1,.11-.29.45.45,0,0,1,.08-.11.6.6,0,0,1,.26-.14.93.93,0,0,1,.21,0,3.85,3.85,0,0,1,.87.18,6.94,6.94,0,0,1,.77.26,7.47,7.47,0,0,1,.74.33l.37.2.19.12.1.08.15.15,0,0a1.2,1.2,0,0,1,.21.75,2.79,2.79,0,0,1-.1.63A3.87,3.87,0,0,1,29.8,21.31Z"/><path class="cls-3" d="M28.61,39.84c0,.66,0,1.32.05,2l0-.11a5.31,5.31,0,0,0,1.8,1,20.3,20.3,0,0,0,2,.66,7.91,7.91,0,0,0,2,.37c.73,0,1.44,0,2.16,0A28.89,28.89,0,0,0,41,43.42a9.82,9.82,0,0,0,4-1.36l-.06.13c0-.64.07-1.28.13-1.91.08.64.14,1.27.2,1.91l-.06.13a8.59,8.59,0,0,1-4,1.87,22.4,22.4,0,0,1-4.41.46c-.74,0-1.48,0-2.2-.05a8.13,8.13,0,0,1-2.23-.5,17.33,17.33,0,0,1-2.06-.84,4.92,4.92,0,0,1-1.83-1.35l0-.11C28.42,41.14,28.5,40.49,28.61,39.84Z"/><path class="cls-3" d="M28,32.3a24.06,24.06,0,0,0,8.85,1.75,29.1,29.1,0,0,0,8.91-1.59,18.07,18.07,0,0,1-4.27,1.83,16.93,16.93,0,0,1-4.64.65,16.42,16.42,0,0,1-4.65-.67A15.17,15.17,0,0,1,28,32.3Z"/><path class="cls-3" d="M27.87,30.28a12.52,12.52,0,0,0,2.52,1,20.35,20.35,0,0,0,2.61.58h0c1.09,0,2.19,0,3.29,0s2.19-.06,3.28-.15,2.18-.19,3.26-.39A17.92,17.92,0,0,0,46,30.5a11.55,11.55,0,0,1-3.06,1.39,20.21,20.21,0,0,1-3.3.67,28.41,28.41,0,0,1-3.35.21,30.57,30.57,0,0,1-3.36-.15h0a14.87,14.87,0,0,1-2.65-.88A9.18,9.18,0,0,1,27.87,30.28Z"/><path class="cls-3" d="M28.87,23.68a14.71,14.71,0,0,1,.91,3.74,14.6,14.6,0,0,1,0,3.85,14.47,14.47,0,0,1-.91-3.74A14.68,14.68,0,0,1,28.87,23.68Z"/><path class="cls-3" d="M29.87,33.19a15,15,0,0,1,.8,3.8,14.46,14.46,0,0,1-.1,3.85,14.89,14.89,0,0,1-.8-3.8A14.64,14.64,0,0,1,29.87,33.19Z"/><path class="cls-3" d="M32.25,24.62a14.34,14.34,0,0,1,.67,3.75,14.44,14.44,0,0,1-.22,3.83A14.29,14.29,0,0,1,32,28.45,14.79,14.79,0,0,1,32.25,24.62Z"/><path class="cls-3" d="M32.75,34.05a14.44,14.44,0,0,1,.59,3.76,17,17,0,0,1-.26,3.8,7.92,7.92,0,0,1-.47-1.87,17.87,17.87,0,0,1-.18-1.89A14.39,14.39,0,0,1,32.75,34.05Z"/><path class="cls-3" d="M35.83,25.11a13.15,13.15,0,0,1,.61,3.6,13.37,13.37,0,0,1-.28,3.69,13.14,13.14,0,0,1-.61-3.6A13.89,13.89,0,0,1,35.83,25.11Z"/><path class="cls-3" d="M36.32,42a14.46,14.46,0,0,1-.48-3.7,16.9,16.9,0,0,1,.33-3.71,7.93,7.93,0,0,1,.44,1.84,16.39,16.39,0,0,1,.14,1.86A13.29,13.29,0,0,1,36.32,42Z"/><path class="cls-3" d="M40.34,25.11a12.56,12.56,0,0,1,.25,3.55,12.42,12.42,0,0,1-.65,3.5,12.42,12.42,0,0,1-.25-3.55A12.56,12.56,0,0,1,40.34,25.11Z"/><path class="cls-3" d="M39.82,34.41a13.65,13.65,0,0,1,.26,3.71,13.55,13.55,0,0,1-.64,3.67,13.58,13.58,0,0,1-.26-3.71A13.81,13.81,0,0,1,39.82,34.41Z"/><path class="cls-3" d="M43.32,24.49a12.88,12.88,0,0,1,.2,3.59,13.34,13.34,0,0,1-.7,3.58,12.6,12.6,0,0,1-.2-3.59A13.14,13.14,0,0,1,43.32,24.49Z"/><path class="cls-3" d="M42.69,33.69a14.07,14.07,0,0,1,.3,3.76,13.9,13.9,0,0,1-.6,3.72,14,14,0,0,1-.3-3.76A14.12,14.12,0,0,1,42.69,33.69Z"/><path class="cls-3" d="M29.14,21.06a11.82,11.82,0,0,1,3.95-1.13,28.13,28.13,0,0,1,4.1-.31A20.26,20.26,0,0,1,45.26,21a51.66,51.66,0,0,0-8.07-.53c-1.34,0-2.69,0-4,.11l-2,.13A9.23,9.23,0,0,0,29.14,21.06Z"/><path class="cls-3" d="M26.84,20.86c.14.59.27,1.18.39,1.78l0-.06a8.56,8.56,0,0,0,2.33,1,19.57,19.57,0,0,0,2.5.6,34.92,34.92,0,0,0,5.13.47,26.81,26.81,0,0,0,5.11-.35,12,12,0,0,0,4.68-1.71l-.16.3c0-.88,0-1.75,0-2.74a7,7,0,0,1,.3-1.4c.13-.43.37-.92.43-1.23.06,0-.14-.2-.3-.31s-.35-.26-.54-.38a10.17,10.17,0,0,0-1.17-.67A2.34,2.34,0,0,0,45,16s-.12.09-.16.16a1.65,1.65,0,0,0-.15.29,2.45,2.45,0,0,0-.17,1.32,2.41,2.41,0,0,1,0-1.38,1.84,1.84,0,0,1,.14-.33,1,1,0,0,1,.1-.16.29.29,0,0,1,.22-.13,2.35,2.35,0,0,1,.71.17,10.53,10.53,0,0,1,1.27.57,5.61,5.61,0,0,1,.6.37,2.87,2.87,0,0,1,.3.23,1.38,1.38,0,0,1,.15.17.54.54,0,0,1,.09.3A12.16,12.16,0,0,1,47.7,19a6.39,6.39,0,0,0-.2,1.29,11.46,11.46,0,0,0,0,1.32l0,1.41-.16.3a12,12,0,0,1-5,1.95,24.63,24.63,0,0,1-5.29.31,27.13,27.13,0,0,1-5.23-.71,12.11,12.11,0,0,1-4.84-2.08l0-.06C27,22.07,26.89,21.47,26.84,20.86Z"/></svg>