<svg id="Layer_1" data-name="Layer 1" xmlns="http://www.w3.org/2000/svg" width="500" height="206.38" viewBox="0 0 500 206.38"><defs><style>.cls-1,.cls-5{fill:#1a6b37;}.cls-2{font-size:139.01px;font-family:DreamOrphans-Bold, Dream Orphans;font-weight:700;}.cls-2,.cls-4{fill:#fff;}.cls-3{fill:none;}.cls-5{font-size:18.33px;font-family:ArialNarrow, Arial Narrow;letter-spacing:0.13em;}</style></defs><title>bushel-logo</title><rect class="cls-1" x="-0.57" y="-0.42" width="500.77" height="208.24"/><text class="cls-2" transform="translate(23.35 151.73)">B<tspan class="cls-3" x="72.28" y="0">u</tspan><tspan x="144.29" y="0">shels</tspan></text><rect class="cls-4" x="28.26" y="163.54" width="443.4" height="20.09"/><text class="cls-5" transform="translate(346.43 179.57) scale(0.98 1)">Co-op Service</text><path class="cls-4" d="M98.46,80.21c.83,4.69,1.34,9.42,1.92,14.14s1.11,9.44,1.59,14.17,1,9.46,1.41,14.19l.66,7.1.3,3.55.29,3.63v.22s0,0,0,0a1,1,0,0,0-.15-.54l-.06-.08h0l.16.13a7.14,7.14,0,0,0,.62.42c.45.29.95.56,1.44.82,1,.51,2.05,1,3.12,1.4a51.32,51.32,0,0,0,6.6,2,58.55,58.55,0,0,0,13.78,1.52,76.31,76.31,0,0,0,27.26-5.44l-.85,1.13c.5-4.81,1-9.61,1.59-14.41s1.13-9.6,1.77-14.39,1.28-9.58,2-14.36c.37-2.39.75-4.78,1.17-7.16.2-1.19.43-2.38.69-3.56a16.4,16.4,0,0,1,1-3.48,16.31,16.31,0,0,0-.7,3.53l-.42,3.59c-.26,2.4-.49,4.8-.71,7.2L161.76,110l-2.46,28.86-.85,1.13a75.6,75.6,0,0,1-28.26,5.92,61.49,61.49,0,0,1-14.47-1.69,48.19,48.19,0,0,1-7-2.24c-1.13-.47-2.25-1-3.35-1.58-.55-.3-1.09-.61-1.64-1a9.59,9.59,0,0,1-.84-.6l-.22-.19a3.73,3.73,0,0,1-.28-.28l-.07-.08a.9.9,0,0,1-.12-.17,1.83,1.83,0,0,1-.25-.74l0-.27-1.76-28.37C99.58,99.18,99.2,89.68,98.46,80.21Z"/><path class="cls-4" d="M165,69.9a2.9,2.9,0,0,1-1,2,8.31,8.31,0,0,1-1.83,1.31A22.39,22.39,0,0,1,158,74.86a65,65,0,0,1-8.82,1.95,145,145,0,0,1-18,1.63A115.65,115.65,0,0,1,113,77.67a58.69,58.69,0,0,1-9-1.85A22.88,22.88,0,0,1,99.5,74a8.57,8.57,0,0,1-2.15-1.65,7.26,7.26,0,0,1-.49-.62,5.65,5.65,0,0,1-.4-.76,3.63,3.63,0,0,1-.23-1.87,4.71,4.71,0,0,1,1.61-2.77A10.94,10.94,0,0,1,100,64.83a25.36,25.36,0,0,1,4.4-1.85,57.41,57.41,0,0,1,9-2,103.11,103.11,0,0,1,18.17-.92,108.93,108.93,0,0,1,18,2.07,57.48,57.48,0,0,1,8.7,2.41,22.87,22.87,0,0,1,4.07,1.93A8.88,8.88,0,0,1,164,67.89,3.13,3.13,0,0,1,165,69.9Zm0,0a3.11,3.11,0,0,0-.94-2,8.84,8.84,0,0,0-1.76-1.39,22.79,22.79,0,0,0-4.08-1.88,52.39,52.39,0,0,0-8.74-2.11,94.4,94.4,0,0,0-17.91-1,117.69,117.69,0,0,0-17.74,2,61.58,61.58,0,0,0-8.52,2.2,22.56,22.56,0,0,0-3.88,1.68,8.1,8.1,0,0,0-1.55,1.1,1.91,1.91,0,0,0-.67,1c0,.19,0,.44.37.84A5.75,5.75,0,0,0,101,71.44a20.15,20.15,0,0,0,3.85,1.64,61,61,0,0,0,8.55,2,133.51,133.51,0,0,0,17.78,1.82,120.67,120.67,0,0,0,18-.55,58.33,58.33,0,0,0,8.84-1.64,22.31,22.31,0,0,0,4.19-1.61A8.27,8.27,0,0,0,164,71.86,2.89,2.89,0,0,0,165,69.9Z"/><path class="cls-4" d="M107.26,75.47c.08-1.31.21-2.58.18-3.79a7.56,7.56,0,0,0-.18-1.71,1.93,1.93,0,0,0-.47-1.06l-.08-.09s.07.1.05.09l0,0-.2-.1-.51-.23-1.14-.45-2.38-.87-2.4-.82-1.18-.37c-.37-.11-.79-.21-1-.25-.05,0-.1,0,0,0l.14,0a2,2,0,0,0,.19-.09,1.06,1.06,0,0,0,.23-.17l.12-.13v0s-.07.11-.12.23a7.76,7.76,0,0,0-.27,1.06c-.15.78-.23,1.62-.33,2.47-.17,1.7-.27,3.45-.48,5.24a22.14,22.14,0,0,1-1.45-5.18,16.25,16.25,0,0,1-.21-2.76,8.59,8.59,0,0,1,.16-1.52,3.3,3.3,0,0,1,.36-1l.1-.16.05-.08,0-.05.13-.13a1.76,1.76,0,0,1,.3-.22,1.41,1.41,0,0,1,.26-.12l.3-.08a2.91,2.91,0,0,1,.67,0,8.57,8.57,0,0,1,1.55.24c.46.1.9.22,1.34.35.87.25,1.72.56,2.55.88s1.66.68,2.47,1.09c.41.2.81.42,1.22.66.21.12.41.25.63.4s.23.16.35.26l.21.19a2.55,2.55,0,0,1,.28.32l-.08-.09a3.9,3.9,0,0,1,.7,2.51,9.33,9.33,0,0,1-.34,2.09,13.5,13.5,0,0,1-.72,1.87A13.69,13.69,0,0,1,107.26,75.47Z"/><path class="cls-4" d="M103.31,137.22c.1,2.19.17,4.4.19,6.62l-.1-.39a10,10,0,0,0,2.76,1.91,29.93,29.93,0,0,0,3.24,1.41,67.7,67.7,0,0,0,6.8,2.19c1.15.31,2.3.61,3.45.85.57.11,1.15.24,1.69.3a5.64,5.64,0,0,0,.71.06l.93,0c2.43.07,4.81.1,7.21.05a96.29,96.29,0,0,0,14.26-1.05c4.68-.71,9.33-1.94,13.25-4.55l-.2.44c.11-2.13.26-4.25.45-6.38.26,2.12.49,4.24.67,6.36l-.2.44a23,23,0,0,1-6.36,4,41.11,41.11,0,0,1-7.13,2.21,66.5,66.5,0,0,1-7.33,1.14c-2.46.2-4.92.36-7.37.39s-4.92-.06-7.34-.17l-.88,0a8.19,8.19,0,0,1-1.1-.14c-.67-.11-1.26-.27-1.88-.42-1.22-.31-2.39-.68-3.57-1.06a57.77,57.77,0,0,1-6.86-2.81,31.67,31.67,0,0,1-3.26-1.86,10.05,10.05,0,0,1-2.87-2.64l-.1-.39C102.63,141.56,102.95,139.4,103.31,137.22Z"/><path class="cls-4" d="M101.36,112.12a97.63,97.63,0,0,0,14.58,4.35l3.71.66c1.24.15,2.48.34,3.73.46s2.49.25,3.74.29,2.5.11,3.75.08a77,77,0,0,0,14.94-1.45,146.66,146.66,0,0,0,14.77-3.84,59.45,59.45,0,0,1-14.23,6.12c-1.26.33-2.52.68-3.79.94l-3.86.68c-1.3.16-2.6.26-3.9.39s-2.62.1-3.92.15a54.71,54.71,0,0,1-15.48-2.23A50,50,0,0,1,101.36,112.12Z"/><path class="cls-4" d="M100.81,105.36a39.13,39.13,0,0,0,4.13,1.89c1.4.55,2.83,1,4.26,1.44s2.89.77,4.34,1.12,2.94.61,4.36.82h-.11c1.79.08,3.64.11,5.47.1s3.66,0,5.49,0c3.65-.09,7.31-.2,10.94-.5,1.82-.13,3.63-.32,5.44-.53l2.71-.34q1.34-.24,2.7-.44a62.47,62.47,0,0,0,10.63-2.78,37.5,37.5,0,0,1-10.2,4.62,67.37,67.37,0,0,1-11,2.22c-.93.11-1.86.23-2.79.31l-2.8.2c-1.86.11-3.73.21-5.6.19a101.94,101.94,0,0,1-11.2-.49h-.11c-1.56-.35-3-.78-4.5-1.26s-2.91-1.05-4.33-1.66a39,39,0,0,1-4.12-2.13A26.06,26.06,0,0,1,100.81,105.36Z"/><path class="cls-4" d="M104.16,83.36a37.21,37.21,0,0,1,1.94,6.19,62,62,0,0,1,1.09,6.27,61,61,0,0,1,.45,6.35,36.91,36.91,0,0,1-.39,6.48,36.09,36.09,0,0,1-1.94-6.16,61.28,61.28,0,0,1-1.09-6.29,62.45,62.45,0,0,1-.45-6.37A36.73,36.73,0,0,1,104.16,83.36Z"/><path class="cls-4" d="M107.49,115.07a44.52,44.52,0,0,1,1.69,6.27q.62,3.15.93,6.33a62.18,62.18,0,0,1,.31,6.4,32.79,32.79,0,0,1-.58,6.49A50.89,50.89,0,0,1,107.12,128a59.51,59.51,0,0,1-.29-6.41A32.09,32.09,0,0,1,107.49,115.07Z"/><path class="cls-4" d="M115.44,86.49a35.52,35.52,0,0,1,1.54,6.2,61.61,61.61,0,0,1,.7,6.31,61,61,0,0,1,.06,6.37,36.08,36.08,0,0,1-.8,6.41,36.08,36.08,0,0,1-1.55-6.24,59.88,59.88,0,0,1-.69-6.28,61.6,61.6,0,0,1,0-6.33A37.86,37.86,0,0,1,115.44,86.49Z"/><path class="cls-4" d="M117.1,117.95a35.63,35.63,0,0,1,1.4,6.26,62.29,62.29,0,0,1,.56,6.29q.13,3.15-.06,6.31a52.75,52.75,0,0,1-.79,6.35,27.11,27.11,0,0,1-1.57-6.24,57,57,0,0,1-.58-6.3,59.81,59.81,0,0,1,.09-6.32A36.93,36.93,0,0,1,117.1,117.95Z"/><path class="cls-4" d="M127.38,88.14a29,29,0,0,1,1.51,6,56.45,56.45,0,0,1,.52,12.16,33,33,0,0,1-.93,6.13,33.45,33.45,0,0,1-1.42-6,56.6,56.6,0,0,1-.57-6.06A48.14,48.14,0,0,1,127.38,88.14Z"/><path class="cls-4" d="M129,144.34a35.77,35.77,0,0,1-1.21-6.17c-.24-2.06-.36-4.11-.39-6.17s0-4.11.2-6.17a46.7,46.7,0,0,1,.89-6.2,27.06,27.06,0,0,1,1.46,6.14,52.42,52.42,0,0,1,.44,6.19,55.52,55.52,0,0,1-.26,6.19A33.59,33.59,0,0,1,129,144.34Z"/><path class="cls-4" d="M142.39,88.15a31.53,31.53,0,0,1,.84,5.94,53,53,0,0,1,0,5.89,52.11,52.11,0,0,1-.65,5.85,31.14,31.14,0,0,1-1.51,5.8,31.14,31.14,0,0,1-.84-5.94,52.11,52.11,0,0,1,0-5.89,53,53,0,0,1,.66-5.85A31.53,31.53,0,0,1,142.39,88.15Z"/><path class="cls-4" d="M140.67,119.14a33.87,33.87,0,0,1,.86,6.18,58.15,58.15,0,0,1,0,6.17,57.25,57.25,0,0,1-.64,6.14,33.7,33.7,0,0,1-1.5,6.08,34.15,34.15,0,0,1-.86-6.21,56.78,56.78,0,0,1,0-6.14,57.93,57.93,0,0,1,.64-6.12A34.85,34.85,0,0,1,140.67,119.14Z"/><path class="cls-4" d="M152.33,86.07a32.62,32.62,0,0,1,.76,6,55.23,55.23,0,0,1-.81,11.89,34.53,34.53,0,0,1-1.59,6,30.67,30.67,0,0,1-.77-6,54.25,54.25,0,0,1,.09-6,55.89,55.89,0,0,1,.74-6A32.64,32.64,0,0,1,152.33,86.07Z"/><path class="cls-4" d="M150.24,116.75a35,35,0,0,1,.93,6.27,59.76,59.76,0,0,1,.08,6.25,58.69,58.69,0,0,1-.56,6.22,34.57,34.57,0,0,1-1.42,6.18,35.05,35.05,0,0,1-.93-6.28,58.48,58.48,0,0,1-.08-6.24,59.52,59.52,0,0,1,.57-6.21A35.46,35.46,0,0,1,150.24,116.75Z"/><path class="cls-4" d="M105.05,74.63a10.76,10.76,0,0,1,3.11-1.49c1.09-.38,2.2-.67,3.31-1,2.23-.55,4.48-1,6.74-1.33s4.54-.57,6.82-.78,4.57-.23,6.86-.28a83.85,83.85,0,0,1,13.7,1,51.53,51.53,0,0,1,13.2,3.75c-4.52-.68-9-1.16-13.45-1.42s-9-.35-13.43-.34-9,.16-13.46.37c-2.24.13-4.49.25-6.73.45-1.12.08-2.24.2-3.36.33-.56.07-1.12.15-1.67.25A6.71,6.71,0,0,0,105.05,74.63Z"/><path class="cls-4" d="M97.38,74c.45,2,.91,3.95,1.33,5.93l-.13-.22a23,23,0,0,0,3.72,2,40.6,40.6,0,0,0,4,1.45,67.79,67.79,0,0,0,8.35,2c2.82.51,5.67.88,8.52,1.13s5.71.45,8.58.48a91.12,91.12,0,0,0,17-1.19A51.11,51.11,0,0,0,157,83.52a30.29,30.29,0,0,0,7.41-3.65l-.54,1c.08-1.36,0-2.94,0-4.42l0-2.31c0-.8.06-1.59.14-2.39a23.48,23.48,0,0,1,1-4.67c.23-.76.52-1.49.8-2.2a10.47,10.47,0,0,0,.64-1.88s0-.08,0-.07a.08.08,0,0,0,0,0l0,0a1.71,1.71,0,0,0-.23-.3,7.23,7.23,0,0,0-.76-.68c-.56-.45-1.18-.86-1.79-1.27a33.89,33.89,0,0,0-3.89-2.21,8,8,0,0,0-2-.71h0s.07-.06,0,0a1.52,1.52,0,0,0-.17.16,2.78,2.78,0,0,0-.32.4,5.49,5.49,0,0,0-.52.95,8.1,8.1,0,0,0-.58,4.39,8.09,8.09,0,0,1,0-4.59,6.12,6.12,0,0,1,.46-1.11,3.49,3.49,0,0,1,.34-.53,2.3,2.3,0,0,1,.22-.25.82.82,0,0,1,.27-.16l.23,0a7.36,7.36,0,0,1,2.39.57,35.08,35.08,0,0,1,4.23,1.92,20.84,20.84,0,0,1,2,1.22,8.83,8.83,0,0,1,1,.77,3.42,3.42,0,0,1,.5.57l.13.21a2.16,2.16,0,0,1,.12.32,3,3,0,0,1,.05.49,5.27,5.27,0,0,1-.24,1.38c-.11.4-.23.76-.34,1.12-.23.72-.44,1.43-.62,2.13a21.28,21.28,0,0,0-.68,4.28c0,.72,0,1.44,0,2.17l.14,2.24c.07,1.55.16,3,.12,4.69L166,82c-5,3.7-10.88,5.41-16.68,6.5a69.48,69.48,0,0,1-8.81,1c-2.94.15-5.89.2-8.83.06a93.34,93.34,0,0,1-17.44-2.35,64,64,0,0,1-8.43-2.59,26.48,26.48,0,0,1-7.69-4.37L98,80C97.76,78,97.57,76,97.38,74Z"/></svg>