<svg id="Layer_1" data-name="Layer 1" xmlns="http://www.w3.org/2000/svg" width="52.44in" height="14.02in" viewBox="0 0 3775.55 1009.68"><defs><style>.cls-1{fill:#f0e9ce;}.cls-2{font-size:799.18px;font-family:DreamOrphans-Bold, Dream Orphans;font-weight:700;}.cls-2,.cls-3{fill:#432c28;}.cls-4{fill:#9f2322;}.cls-5{fill:#fff;}.cls-6{fill:#99ba3c;}.cls-7{font-size:124.67px;fill:#9f2120;font-family:AmericanCaptain, American Captain;letter-spacing:0.4em;}.cls-8{fill:none;stroke:#42251d;stroke-miterlimit:10;stroke-width:36.01px;}</style></defs><title>bushels-logo</title><rect class="cls-1" x="-6.34" y="-13.67" width="3781.41" height="1020.23"/><text class="cls-2" transform="translate(962.19 789.75)">Bushels</text><rect class="cls-3" x="479.28" y="124.64" width="11.3" height="690.38" transform="translate(1115.27 711.84) rotate(156.91)"/><ellipse class="cls-3" cx="476.41" cy="908.3" rx="141.98" ry="36.55"/><ellipse class="cls-3" cx="476.41" cy="876.59" rx="78.72" ry="29.52"/><path class="cls-3" d="M476.69,889.73,439.46,852.5s30.67-50.33,35.3-50.35S513.37,853,513.37,853Z"/><path class="cls-3" d="M620.33,747.93a304.71,304.71,0,0,1-129.52,27.63c-164.92-1.21-300.37-135-303.45-299.94C184.87,342.9,267,229,383.34,184.28a12.15,12.15,0,0,0,6.9-16l-9-21.41a12.76,12.76,0,0,0-16.38-6.94c-154.56,60.3-256.2,226.35-216,409.23C178,681.26,282.18,784.95,414.44,813.45c80.8,17.41,158.22,7.2,224.62-23a12.16,12.16,0,0,0,6.17-15.78l-8.59-20.45A12.15,12.15,0,0,0,620.33,747.93Z"/><ellipse class="cls-4" cx="493.05" cy="469.62" rx="273.01" ry="275.15"/><path class="cls-5" d="M470.14,239.9c5.91-24,67.08-22,117.24-4.29s97.93,56.34,92,80.39S616.15,340.42,566,322.69,464.23,264,470.14,239.9Z"/><path class="cls-4" d="M455.3,212.61c7.14-23.71,68.13-18.52,117.31,1.77s94.89,61.33,87.75,85-64.43,21.11-113.61.82S448.16,236.32,455.3,212.61Z"/><path class="cls-5" d="M574,263.38s18.13-105.68-22-140,43.23-32.56,47.91-15.85c9.16,32.74-2.59,126.82-12.95,157.2Z"/><path class="cls-3" d="M564.8,263.76s18.13-106.08-22-140.55S586,90.53,590.7,107.3c9.16,32.87-2.59,127.29-12.95,157.79Z"/><path class="cls-5" d="M531.88,109.77a18,18,0,0,0,5.31,3.2,26.55,26.55,0,0,0,6.16,1.65,64,64,0,0,0,13,.47,130.89,130.89,0,0,0,13.1-1.35c4.35-.65,8.7-1.42,13-2.41l.15.55q-6.4,1.79-12.93,3a130.6,130.6,0,0,1-13.19,1.78,65.62,65.62,0,0,1-13.4-.25,27.67,27.67,0,0,1-6.62-1.66,11.32,11.32,0,0,1-5.46-4.27Z"/><path class="cls-5" d="M589.87,255.47c-.52.12,3.78-29.67,4.33-32.49a167.31,167.31,0,0,1,8.39-28.72,126,126,0,0,1,85.5-76.2c19.48-5.17,37.5-3.31,57.16-.25a155.79,155.79,0,0,0,29.82,2.3,124.56,124.56,0,0,0,32.69-5.61c11.91-3.47,24.43-8.51,38.43-13.62l0,.23c-.16,14.86-20.19,39.76-35.83,65C794.43,191.8,704.2,284.41,589.87,255.47Z"/><path class="cls-6" d="M591,251.25c-.51.12,1.56-30.16,2.09-33a167.31,167.31,0,0,1,8.08-28.81,126,126,0,0,1,84.67-77.12c19.42-5.38,37.47-3.71,57.15-.87a155.79,155.79,0,0,0,29.85,2,124.56,124.56,0,0,0,32.63-6c11.87-3.59,35.13-16.12,38.14-13.87,5.81,4.12-19.6,40.05-35,65.44C793,184.93,705.62,278.95,591,251.25Z"/><path class="cls-5" d="M584,262.53a63.79,63.79,0,0,1,3.45-11.74,103.08,103.08,0,0,1,5.14-11.05,120.57,120.57,0,0,1,13.75-20.11,173.41,173.41,0,0,1,36.4-32.08,198.93,198.93,0,0,1,21-12,203.52,203.52,0,0,1,22.28-9.29,218.91,218.91,0,0,1,23.08-6.77c1.93-.53,3.91-.86,5.86-1.27l5.88-1.19c3.94-.69,7.9-1.22,11.83-1.84l.41,2.24-11.48,2.95c-3.79,1.12-7.59,2.16-11.34,3.34l-5.61,1.84-2.8.92-2.76,1-5.53,2c-1.85.66-3.63,1.47-5.45,2.2-7.27,2.93-14.31,6.36-21.22,10-3.4,1.92-6.83,3.77-10.12,5.85s-6.57,4.17-9.81,6.32a209.39,209.39,0,0,0-18.26,14.43,165.28,165.28,0,0,0-16.2,16.63,229.87,229.87,0,0,0-14.16,18.39c-2.2,3.19-4.39,6.41-6.4,9.75s-4,6.74-5.82,10.16Z"/><text class="cls-7" transform="translate(1637.1 943.83)">World Produce</text><line class="cls-8" x1="3541.5" y1="924.91" x2="2926.69" y2="924.91"/><line class="cls-8" x1="988.42" y1="926.38" x2="1605.27" y2="926.38"/></svg>